<svg width="180" height="40" viewBox="0 0 180 40" fill="none" xmlns="http://www.w3.org/2000/svg">
  <!-- Omega Symbol -->
  <path d="M20 8C12.268 8 6 14.268 6 22C6 26.418 7.791 30.418 10.686 33.314L10.686 33.314L8 36H14L15.5 34.5C17 35.4 18.5 36 20 36C21.5 36 23 35.4 24.5 34.5L26 36H32L29.314 33.314C32.209 30.418 34 26.418 34 22C34 14.268 27.732 8 20 8ZM20 32C14.477 32 10 27.523 10 22C10 16.477 14.477 12 20 12C25.523 12 30 16.477 30 22C30 27.523 25.523 32 20 32Z" fill="white"/>
  
  <!-- OMEGA Text -->
  <text x="42" y="27" font-family="Inter, Arial, sans-serif" font-size="14" font-weight="700" fill="white" letter-spacing="1">OMEGA</text>
  
  <!-- FINANCIAL Text -->
  <text x="100" y="27" font-family="Inter, Arial, sans-serif" font-size="14" font-weight="400" fill="white" letter-spacing="1">FINANCIAL</text>
</svg>
